<svg width="646" height="594" viewBox="0 0 646 594" fill="none" xmlns="http://www.w3.org/2000/svg">
<path d="M89.7187 279.149C76.4798 206.527 91.8809 140.914 150.102 107.085C207.921 73.0538 308.56 70.8059 402.007 111.849C495.453 152.892 581.849 236.944 591.242 306.219C600.636 375.495 532.508 429.027 452.3 460.607C371.692 491.984 279.003 501.409 211.648 466.446C144.435 431.201 102.557 351.57 89.7187 279.149Z" fill="#518E90"/>
<g clip-path="url(#clip0_1074_77)">
<path d="M189.6 327.503C187.409 327.738 185.02 328.092 182.478 328.61C171.7 330.804 171.477 338.122 171.571 339.8L171.498 339.755C170.414 341.493 169.735 343.252 169.325 344.913L168.832 322.483C169.151 321.818 169.441 321.064 169.683 320.29C170.49 322.775 171.813 325.122 172.952 324.966C174.435 324.764 175.081 320.402 174.805 317.303C176.69 319.73 179.862 322.326 181.059 321.526C182.015 320.886 181.448 318.253 180.404 315.858C182.579 317.169 184.989 318.03 185.736 317.198C186.757 316.062 184.312 312.187 182.057 310.024C185.075 310.306 188.913 309.825 189.165 308.451C189.372 307.32 187.088 305.891 184.643 304.972C187.099 304.325 189.395 303.197 189.319 302.08C189.229 300.754 185.819 299.866 182.878 299.731C185.096 297.995 187.135 295.596 186.512 294.511C185.938 293.513 183.272 293.899 180.813 294.778C182.268 292.697 183.292 290.352 182.512 289.549C181.541 288.55 178.095 290.275 175.744 292.182C176.202 289.211 175.97 285.46 174.637 285.121C173.522 284.837 171.942 287.019 170.859 289.396C170.38 286.901 169.411 284.533 168.292 284.533C166.698 284.533 165.406 289.338 165.406 292.469C165.406 292.646 165.411 292.812 165.419 292.972C165.259 292.786 165.076 292.592 164.867 292.389C162.621 290.208 158.274 287.788 157.163 288.931C156.384 289.733 157.407 292.079 158.863 294.16C156.403 293.281 153.737 292.895 153.164 293.892C152.394 295.233 155.686 298.579 158.361 300.202C158.201 300.182 158.032 300.166 157.852 300.154C154.728 299.941 149.847 300.903 149.738 302.493C149.662 303.609 151.958 304.737 154.414 305.385C151.969 306.304 149.685 307.732 149.892 308.863C150.144 310.237 153.982 310.718 157 310.436C154.745 312.599 152.301 316.475 153.321 317.61C154.069 318.443 156.478 317.581 158.653 316.27C157.609 318.665 157.042 321.298 157.999 321.938C159.262 322.783 162.728 319.841 164.556 317.309C164.37 320.407 165.111 324.662 166.581 324.83C167.196 324.9 167.848 324.244 168.436 323.234L166.77 347.343C166.381 350.151 168.871 351.983 169.094 353.139L169.453 369.465C169.048 368.303 168.502 367.113 167.766 365.932L167.692 365.977C167.787 364.299 167.563 356.981 156.786 354.787C154.244 354.269 151.854 353.916 149.664 353.68C147.078 353.402 146.07 356.941 148.405 358.084C151.788 359.74 154.97 361.826 156.629 364.296C160.869 370.612 166.728 366.961 167.561 366.394C168.491 367.943 169.101 369.503 169.487 370.988L169.678 379.658C169.631 379.863 169.599 379.978 169.596 379.987L169.685 380.013L170.147 400.996L174.43 400.961L172.898 379.514C173.156 378.357 173.948 374.416 172.898 370.322L171.366 353.471C171.362 353.458 171.453 353.913 171.366 353.471L169.368 346.849C169.658 344.801 170.333 342.497 171.702 340.217C172.535 340.784 178.394 344.435 182.635 338.119C184.293 335.649 187.475 333.563 190.858 331.907C193.194 330.764 192.185 327.224 189.6 327.503ZM170.035 377.146L169.954 373.477C170.117 374.864 170.108 376.117 170.035 377.146Z" fill="#F2F2F2"/>
<path d="M517.377 327.503C515.187 327.738 512.797 328.092 510.255 328.61C499.478 330.804 499.254 338.122 499.348 339.8L499.275 339.755C498.192 341.493 497.513 343.252 497.103 344.913L496.609 322.483C496.928 321.818 497.219 321.064 497.461 320.29C498.267 322.775 499.59 325.122 500.73 324.966C502.212 324.764 502.858 320.402 502.582 317.303C504.467 319.73 507.639 322.326 508.836 321.526C509.792 320.886 509.225 318.253 508.181 315.858C510.357 317.169 512.766 318.03 513.514 317.198C514.534 316.062 512.089 312.187 509.835 310.024C512.853 310.306 516.691 309.825 516.942 308.451C517.15 307.32 514.865 305.891 512.42 304.972C514.876 304.325 517.173 303.197 517.097 302.08C517.006 300.754 513.597 299.866 510.655 299.731C512.874 297.995 514.912 295.596 514.289 294.511C513.716 293.513 511.05 293.899 508.59 294.778C510.046 292.697 511.069 290.352 510.29 289.549C509.319 288.55 505.873 290.275 503.521 292.182C503.979 289.211 503.748 285.46 502.415 285.121C501.3 284.837 499.72 287.019 498.636 289.396C498.157 286.901 497.188 284.533 496.069 284.533C494.476 284.533 493.184 289.338 493.184 292.469C493.184 292.646 493.188 292.812 493.196 292.972C493.036 292.786 492.853 292.592 492.644 292.389C490.398 290.208 486.051 287.788 484.941 288.931C484.161 289.733 485.185 292.079 486.641 294.16C484.181 293.281 481.515 292.895 480.941 293.892C480.171 295.233 483.463 298.579 486.139 300.202C485.978 300.182 485.809 300.166 485.629 300.154C482.506 299.941 477.624 300.903 477.515 302.493C477.439 303.609 479.736 304.737 482.192 305.385C479.747 306.304 477.462 307.732 477.67 308.863C477.921 310.237 481.759 310.718 484.777 310.436C482.523 312.599 480.078 316.475 481.098 317.61C481.846 318.443 484.255 317.581 486.431 316.27C485.387 318.665 484.82 321.298 485.776 321.938C487.04 322.783 490.506 319.841 492.333 317.309C492.147 320.407 492.888 324.662 494.359 324.83C494.974 324.9 495.625 324.244 496.213 323.234L494.548 347.343C494.158 350.151 496.649 351.983 496.871 353.139L497.231 369.465C496.825 368.303 496.279 367.113 495.543 365.932L495.47 365.977C495.564 364.299 495.34 356.981 484.563 354.787C482.021 354.269 479.632 353.916 477.441 353.68C474.856 353.402 473.847 356.941 476.183 358.084C479.565 359.74 482.748 361.826 484.406 364.296C488.646 370.612 494.505 366.961 495.338 366.394C496.269 367.943 496.879 369.503 497.264 370.988L497.455 379.658C497.408 379.863 497.376 379.978 497.373 379.987L497.463 380.013L497.924 400.996L502.207 400.961L500.675 379.514C500.933 378.357 501.725 374.416 500.675 370.322L499.144 353.471C499.14 353.458 499.231 353.913 499.144 353.471L497.145 346.849C497.436 344.801 498.11 342.497 499.48 340.217C500.313 340.784 506.172 344.435 510.412 338.119C512.071 335.649 515.253 333.563 518.635 331.907C520.971 330.764 519.963 327.224 517.377 327.503ZM497.812 377.146L497.731 373.477C497.894 374.864 497.886 376.117 497.812 377.146Z" fill="#F2F2F2"/>
<path d="M450.88 258.837L448.872 210.957C448.872 210.957 446.616 182.531 444.811 172.605C443.007 162.679 430.824 165.386 430.824 165.386L432.178 193.811L438.018 222.901L442.564 262.513C442.33 263.659 442.197 264.904 442.197 266.212C442.197 271.761 444.514 276.26 447.373 276.26C450.232 276.26 452.55 271.761 452.55 266.212C452.55 263.293 451.904 260.672 450.88 258.837Z" fill="#FFB6B6"/>
<path d="M353.118 246.43C355.254 243.887 357.812 242.158 360.108 241.493L387.121 210.957C387.121 210.957 389.377 182.531 391.182 172.605C392.987 162.679 405.169 165.386 405.169 165.386L403.815 193.811L396.145 224.493L364.536 251.328C363.984 252.334 363.307 253.339 362.497 254.304C358.651 258.885 353.435 260.835 350.845 258.661C348.255 256.486 349.273 251.011 353.118 246.43Z" fill="#FFB6B6"/>
<path d="M412.551 161.551L415.684 149.505L427.891 148.917L431.544 165.523L412.551 161.551Z" fill="#FFB6B6"/>
<path opacity="0.1" d="M412.551 161.551L415.684 149.505L427.891 148.917L431.544 165.523L412.551 161.551Z" fill="black"/>
<path d="M381.379 358.902L369.945 358.249L371.445 393.338L379.193 393.781L381.379 358.902Z" fill="#FFB6B6"/>
<path d="M370.455 382.243L374.425 384.054L374.419 386.461C374.419 386.461 375.377 383.676 380.518 383.068L381.132 385.401C381.132 385.401 383.126 387.69 382.784 391.829L381.475 402.915L377.598 402.826L376.972 395.112C376.972 395.112 375.904 393.361 370.984 401.679C370.984 401.679 365.565 403.045 357.172 400.231C356.019 399.845 355.218 398.768 355.233 397.551C355.241 396.88 355.503 396.259 356.345 396.037C358.488 395.47 360.581 396.189 361.964 394.478C363.348 392.768 370.455 382.243 370.455 382.243Z" fill="#2F2E41"/>
<path d="M442.742 358.902L431.309 358.249L432.808 393.338L440.556 393.781L442.742 358.902Z" fill="#FFB6B6"/>
<path d="M431.818 382.243L435.788 384.054L435.783 386.461C435.783 386.461 436.741 383.676 441.882 383.068L442.495 385.401C442.495 385.401 444.489 387.69 444.147 391.829L442.839 402.915L438.961 402.826L438.335 395.112C438.335 395.112 437.267 393.361 432.347 401.679C432.347 401.679 426.928 403.045 418.536 400.231C417.382 399.845 416.581 398.768 416.596 397.551C416.604 396.88 416.867 396.259 417.708 396.037C419.851 395.47 421.944 396.189 423.328 394.478C424.711 392.768 431.818 382.243 431.818 382.243Z" fill="#2F2E41"/>
<path d="M421.936 156.599C429.412 156.599 435.472 150.538 435.472 143.063C435.472 135.587 429.412 129.527 421.936 129.527C414.461 129.527 408.4 135.587 408.4 143.063C408.4 150.538 414.461 156.599 421.936 156.599Z" fill="#FFB6B6"/>
<path d="M429.612 145.313C429.612 145.313 423.661 135.575 417.704 136.65C411.746 137.725 408.641 138.695 408.641 138.695C408.641 138.695 406.215 130.931 414.36 127.206C414.36 127.206 402.833 117.556 415.118 111.363C427.402 105.17 435.046 111.172 435.046 111.172C435.046 111.172 445.213 119.795 433.941 127.774C433.941 127.774 443.697 138.888 433.843 149.504C433.843 149.504 435.583 141.421 433.216 143.078C430.85 144.735 429.612 145.313 429.612 145.313Z" fill="#2F2E41"/>
<path d="M431.05 162.453L412.551 160.197L398.338 171.703C398.338 171.703 391.27 191.398 396.533 203.286C396.66 203.571 396.759 223.365 396.759 223.365H436.063C436.063 223.365 436.025 209.892 437.527 205.013C437.741 204.316 437.987 203.794 438.269 203.512C440.525 201.256 445.939 186.818 443.232 180.501C440.525 174.184 431.05 162.453 431.05 162.453Z" fill="#C2767C"/>
<path d="M396.534 222.462L371.718 301.422L366.304 363.687H381.419L394.278 305.934L411.986 272.502L429.471 368.199H444.728L444.361 238.705L436.031 222.462H396.534Z" fill="#2F2E41"/>
<path d="M569.072 401.104H114.48V402.49H569.072V401.104Z" fill="#3F3D56"/>
<path d="M347.503 238.443C342.997 231.187 332.484 229.48 324.676 232.941C316.868 236.402 311.471 243.782 307.802 251.495C304.133 259.208 301.825 267.518 298.054 275.181C286.958 297.729 264.489 312.456 250.354 333.235C239.734 348.847 234.111 367.803 234.498 386.681C234.647 393.912 235.816 401.519 240.329 407.171C247.026 415.56 258.885 417.281 269.563 418.386C275.765 419.028 283.378 419.009 286.573 413.654C287.836 411.536 274.258 404.145 274.476 401.688C275.651 388.43 290.652 380.01 291.828 366.752C293.671 375.99 291.309 385.528 291.682 394.941C292.055 404.353 296.694 415.001 305.912 416.947C308.756 417.548 311.967 417.132 314.123 415.182C316.279 413.232 316.908 409.547 314.988 407.365C316.954 409.373 320.273 409.895 322.761 408.588C325.249 407.28 326.701 404.251 326.161 401.492C325.765 399.463 324.456 397.757 323.322 396.029C317.181 386.667 315.581 374.467 319.101 363.838C325.322 345.049 345.752 332.784 349.213 313.297C351.784 298.825 344.451 282.426 352.232 269.956C355.739 264.336 361.693 260.794 366.442 256.176C371.191 251.558 374.905 244.493 372.187 238.452L347.913 238.426" fill="#3F3D56"/>
<path d="M272.644 404.312C272.04 404.312 271.421 404.151 270.823 403.83C269.445 403.091 268.405 401.63 268.175 400.108C267.792 397.575 268.998 395.116 269.967 393.14C272.618 387.736 275.239 381.957 275.626 375.952C276.048 369.396 273.388 363.32 268.851 360.471C265.479 358.354 260.977 357.809 256.175 358.939C251.922 359.939 248.1 361.984 243.902 364.356C243.569 364.544 243.146 364.427 242.958 364.093C242.77 363.76 242.887 363.337 243.22 363.149C247.355 360.813 251.432 358.63 255.858 357.589C261.024 356.375 265.9 356.981 269.588 359.297C274.55 362.413 277.463 368.985 277.009 376.041C276.606 382.299 273.924 388.221 271.211 393.75C270.281 395.647 269.227 397.797 269.545 399.9C269.71 400.989 270.487 402.078 271.478 402.609C271.96 402.868 272.696 403.101 273.461 402.745C273.809 402.583 274.22 402.734 274.382 403.081C274.543 403.428 274.393 403.84 274.046 404.001C273.601 404.209 273.127 404.312 272.644 404.312Z" fill="#2F2E41"/>
<path d="M325.75 237.967C324.843 240.452 326.053 243.238 327.731 245.283C329.409 247.329 331.564 248.974 333.042 251.168C336.141 255.767 335.677 262.054 333.295 267.063C330.914 272.071 326.9 276.084 322.963 279.989C323.254 278.315 322.407 276.624 321.253 275.376C320.099 274.128 318.646 273.202 317.356 272.095C311.346 266.943 309.466 257.555 313.028 250.486" fill="#2F2E41"/>
<path d="M243.666 385.825C238.576 385.202 234.276 389.782 229.195 390.484C223.321 391.297 217.918 386.648 215.304 381.325C212.691 376.001 212.02 369.958 210.222 364.307C208.423 358.656 204.954 352.932 199.302 351.135C196.931 350.382 194.248 350.423 192.045 351.58C189.842 352.736 188.228 355.098 188.283 357.585C188.35 360.646 190.698 363.096 192.12 365.808C194.382 370.122 194.312 375.231 195.312 379.999C197.715 391.463 207.04 401.184 218.393 404.062C224.265 405.55 230.837 405.21 235.923 401.92C241.009 398.631 244.109 392.006 242.227 386.249" fill="#3F3D56"/>
</g>
<defs>
<clipPath id="clip0_1074_77">
<rect width="454.592" height="310.111" fill="white" transform="translate(114.48 108.56)"/>
</clipPath>
</defs>
</svg>
