<svg width="208" height="155" viewBox="0 0 208 155" fill="none" xmlns="http://www.w3.org/2000/svg">
<g id="open-doodles-man-petting-a-dog 1" clip-path="url(#clip0_1161_148)">
<g id="Illustrations/Doggie">
<path id="Accent" fill-rule="evenodd" clip-rule="evenodd" d="M188.968 146.618C190.135 147.214 191.233 147.214 192.4 147.695C193.544 148.154 193.841 150.103 194.825 150.332C190.295 150.813 185.811 151.822 181.212 151.318C181.601 149.69 180.892 148.039 181.853 146.503C184.415 144.073 186.085 145.104 188.968 146.618ZM169.818 34.9622C169.887 36.1085 169.956 36.5671 170.779 37.3007C171.42 37.8739 171.763 37.0256 171.832 38.149C171.877 38.791 171.191 39.1349 170.939 39.6622C169.635 42.2759 170.528 45.6692 171.168 48.2829C172.472 53.5791 175.63 59.3338 173.41 64.6987C173.182 65.249 172.999 66.4183 172.564 66.831C171.992 66.5329 171.58 66.6705 171.305 67.2207C171.145 67.4042 170.985 67.5876 170.825 67.7481C169.818 68.6881 168.743 69.032 167.416 68.5276C164.739 67.5417 164.282 64.4007 164.282 61.9475C164.259 59.2421 164.831 56.3991 165.448 53.7625C165.746 52.5015 166.203 51.0112 165.357 49.819C164.556 48.6956 163.572 49.3146 162.772 48.8102C161.925 48.2829 163.138 44.3165 162.314 43.2618C160.873 41.4276 160.369 45.9214 160.346 46.8155C160.323 47.8243 160.369 48.9936 160.85 49.8878C161.216 50.5985 162.428 51.2176 162.634 51.9512C162.817 52.6161 161.971 54.3815 161.856 55.0923C161.67 56.2067 161.563 57.3329 161.536 58.4625C161.33 62.2685 161.948 66.2807 164.556 69.2383C165.7 70.5452 167.645 72.0125 169.475 71.7832C171.077 71.5769 172.701 70.7057 174.188 70.1096C175.195 73.9843 176.705 77.7443 178.329 81.4127C179.725 84.5996 181.052 87.8552 182.516 91.0192C185.628 97.6451 190.661 103.308 194.596 109.43C198.394 115.345 200.522 122.154 201.048 129.147C201.163 130.798 200.682 133.068 201.071 134.604C201.437 136.048 201.758 136.69 201.506 138.272C201.254 140.038 200.728 141.642 200.957 143.431C201.14 145.013 201.895 147.374 201.071 148.842C200.087 147.787 199.104 147.283 198.486 145.884C197.868 144.462 198.12 143.27 196.724 142.651C195.534 142.124 194.688 142.239 193.658 141.344C192.441 140.288 191.498 138.95 190.913 137.447C189.826 134.87 189.712 131.985 190.593 129.331C191.325 127.175 193.43 123.163 196.381 124.608C195.946 123.713 195.649 122.727 194.802 122.131C194.07 121.627 192.972 121.444 192.171 120.87C191.243 120.181 190.255 119.575 189.22 119.059C188.838 118.901 188.449 118.764 188.053 118.646C187.572 118.486 186.634 118.601 186.566 118.601C184.827 118.325 182.882 117.5 181.807 116.216C181.012 115.303 180.3 114.321 179.679 113.281C178.878 111.86 178.581 111.952 177.048 111.608C174.829 111.126 173.433 110.782 171.649 109.132C169.681 107.297 168.24 105.028 166.798 102.781C165.952 101.474 165.22 101.382 163.847 100.855C163.046 100.557 161.948 99.1812 161.216 99.0895C161.01 99.0666 160.003 99.5252 159.66 99.571C159.084 99.6587 158.499 99.6664 157.921 99.5939C156.526 99.4564 155.29 99.0666 154.352 97.989C151.469 94.6187 150.577 86.663 154.535 83.7971C155.29 83.2468 156.343 82.9947 156.777 82.1005C157.281 81.0688 157.052 79.097 157.006 77.9965C156.976 76.7082 156.877 75.4224 156.709 74.1447C156.643 73.6704 156.512 73.2074 156.32 72.7691C155.862 71.6457 155.725 71.8062 154.787 71.5311C153.437 71.1413 152.819 71.3018 151.995 70.0179C151.332 68.9861 151.035 67.7022 150.966 66.4871C150.92 65.3636 151.423 64.309 150.989 63.3002C150.371 61.8099 149.227 60.6636 148.701 59.0357C148.266 57.6601 147.168 54.5879 148.266 53.3039C148.747 52.7307 149.616 52.639 150.097 51.8824C150.943 50.5527 151.263 49.819 152.522 48.7873C153.437 48.0077 154.329 46.8614 155.427 46.4028C156.526 45.9443 157.532 46.678 158.425 46.4716C159.385 46.2424 159.134 44.0184 159.408 43.0096C159.812 41.5998 160.514 40.2938 161.467 39.1808C161.788 38.8369 162.177 38.7681 162.405 38.2866C162.726 37.6447 162.611 36.7505 162.863 36.0397C163.16 35.2144 163.915 33.77 164.739 33.3114C167.233 31.9816 167.965 35.4207 169.818 34.9622ZM164.121 133.618C164.465 134.535 164.282 136.025 164.671 136.828C164.991 137.47 166.249 137.859 166.867 138.616C168.194 140.244 168.697 142.835 168.217 144.852C166.592 144.44 165.517 144.187 163.87 144.417C163.687 140.794 163.847 137.263 164.121 133.618ZM144.056 136.369C145.155 137.607 145.704 139.052 145.544 140.702C145.477 141.373 145.339 142.034 145.132 142.674C144.949 143.293 144.011 144.462 144.377 144.783C143.347 144.715 142.135 144.852 141.402 144.164C140.739 143.568 140.281 142.032 140.007 141.207C140.533 140.175 141.036 139.12 141.563 138.089C141.906 138.616 142.89 140.038 143.713 139.579C144.331 139.235 143.828 137.034 144.056 136.369ZM182.814 126.74C184.072 127.909 184.507 130.041 184.438 131.692C184.461 133.962 183.683 138.501 180.732 138.662C178.375 138.777 175.836 135.383 175.584 133.297C175.286 131.004 176.041 125.502 179.061 125.02C180.16 124.837 182.013 126.006 182.814 126.74ZM161.65 129.674C161.715 131.141 161.7 132.611 161.605 134.076C161.513 135.315 161.833 136.782 161.559 137.974C159.797 136.002 157.509 133.87 157.578 130.981C157.647 128.253 159.912 128.482 161.65 129.674ZM144.011 96.8885L145.475 98.4934C145.521 100.763 145.475 102.987 146.161 105.165C146.893 107.458 148.106 109.682 149.296 111.745C151.629 115.781 152.179 119.586 152.453 124.195C148.06 122.223 145.681 115.505 144.239 111.287C143.484 109.063 142.684 106.839 141.952 104.592C141.242 102.391 139.984 99.5022 140.808 97.1637C142.409 98.3559 143.095 98.952 144.011 96.8885ZM171.351 112.754C173.502 114.451 173.662 117.064 174.417 119.449C173.949 119.776 173.506 120.136 173.09 120.526C172.838 120.779 172.266 121.81 172.06 121.902C171.305 122.315 170.642 121.787 169.91 121.1C168.446 119.77 167.53 116.927 167.599 114.978C167.668 112.708 169.292 111.126 171.351 112.754ZM201.3 102.735C204.091 104.34 203.359 108.742 203.016 111.241C202.787 112.8 203.29 114.405 203.245 115.872C203.199 117.546 202.33 117.202 201.78 118.234C201.3 116.973 200.408 115.46 200.202 114.13L199.881 113.281C200.003 113.241 200.11 113.165 200.188 113.063C200.265 112.96 200.31 112.837 200.316 112.708C200.407 112.063 200.453 111.412 200.453 110.759C200.576 108.07 200.858 105.391 201.3 102.735ZM158.905 105.715C158.608 106.885 158.379 109.109 156.64 108.421C155.267 107.871 154.947 105.715 154.947 104.5C154.947 103.514 155.107 101.68 156.503 101.612C158.196 101.543 158.791 104.569 158.905 105.715ZM145.727 72.9525C144.583 74.8096 143.782 77.538 144.331 79.7161C144.903 82.0088 146.688 82.559 148.266 80.8853C149.57 82.9488 146.893 86.5942 144.514 84.6454C143.988 84.2327 143.645 83.4073 143.004 83.1551C142.478 82.9488 142.02 83.2239 141.471 83.1093C139.824 82.7425 139.206 81.1146 138.565 79.7619C138.748 78.6614 138.932 77.5609 139.16 76.4604C139.298 75.8872 139.412 75.2911 139.549 74.7179C139.778 73.7321 139.709 73.8467 140.419 73.3652C142.295 72.0584 143.599 71.9896 145.727 72.9525ZM146.71 73.9613L148.083 77.0336C147.328 76.8502 146.504 79.12 146.024 79.5556C145.795 77.6755 146.344 75.7955 146.71 73.9613ZM145.933 63.4377C147.191 63.9651 147.42 66.2578 147.465 67.3583C147.122 68.5276 146.802 70.0179 145.361 69.1925C144.4 68.6422 143.988 66.8539 143.942 65.868C143.896 64.63 144.377 62.7729 145.933 63.4377Z" fill="#BD747A"/>
<g id="Ink">
<path id="Fill-1" fill-rule="evenodd" clip-rule="evenodd" d="M136.575 36.7044C136.072 36.9337 137.032 38.6762 137.193 38.9971C137.582 39.8225 138.085 41.5421 139.023 41.0606C138.222 39.6162 137.398 38.1488 136.575 36.7044ZM15.7731 137.194C15.0867 136.896 14.1716 139.51 14.0343 140.06C13.6911 141.55 13.9885 142.559 15.1783 143.522C14.6749 141.39 15.2698 139.258 15.7731 137.194ZM174.623 24.553C173.776 23.4296 172.541 21.3661 170.802 22.4666C170.116 22.9022 169.589 24.2779 169.178 24.9657C168.495 25.9966 167.891 27.0772 167.37 28.1984C168.217 27.8545 168.72 27.075 169.498 26.6623C170.024 26.3872 170.505 26.3413 171.008 26.135C172.106 25.6535 173.639 25.2179 174.623 24.553ZM35.0831 134.237C35.5407 136.048 35.9754 137.859 36.3414 139.693C36.5931 140.931 37.3939 142.697 36.9821 143.912C38.0803 143.774 39.1785 143.614 40.2766 143.476C39.453 141.619 39.0412 139.625 38.7895 137.607C38.6522 136.369 38.8353 136.025 37.8972 135.337C37.188 134.833 35.9296 134.558 35.0831 134.237ZM28.9972 64.7215C31.1021 66.8537 32.9553 69.261 35.2204 71.2328C36.3872 72.2645 37.5769 73.2504 38.7895 74.2592C39.7962 75.1075 41.4206 76.9416 42.7476 77.2168C42.9077 76.529 43.2967 75.4285 43.2052 74.7406C43.5941 74.3509 43.4797 74.0528 42.8391 73.8694C42.4502 73.5714 42.0841 73.2733 41.6952 72.9752C40.2309 71.7372 38.8353 70.4074 37.4396 69.1005C36.0574 67.8077 34.7654 66.4212 33.5731 64.9507C32.9324 64.1712 32.5664 63.3917 31.5368 63.1624C30.2785 62.8414 29.8667 63.8044 28.9972 64.7215ZM71.3007 143.545C71.2321 144.692 74.0691 145.402 74.9385 145.471C77.2722 145.654 78.7822 144.646 79.583 142.628C81.2532 138.432 83.9071 134.741 85.0282 130.339C85.3485 129.032 85.6459 128.436 84.4562 127.771C83.9758 127.496 82.7174 126.877 82.1912 127.244C81.6879 127.565 81.276 129.055 80.9557 129.605C80.4524 130.477 79.8575 131.279 79.3084 132.127C76.7002 135.979 74.092 139.785 71.3007 143.545ZM37.6913 85.7915L48.5589 92.0277C49.0165 90.4687 49.2224 88.8179 49.6342 87.236C49.9316 86.1125 50.7095 84.5305 50.6638 83.5447C50.5951 82.0773 49.4512 80.1285 48.9478 78.707C48.3301 76.9646 47.7124 75.1992 47.0946 73.4567C46.2481 74.2592 45.2872 74.8094 45.2872 75.8641C45.2872 76.4602 45.6761 76.827 45.4473 77.5148C45.2872 77.9963 44.6008 78.6153 44.2576 78.9822C43.2967 80.0139 43.3196 80.0597 42.29 79.0968C40.78 81.3207 39.2471 83.5447 37.6913 85.7915ZM49.6571 114.978C49.8057 113.499 50.0348 112.03 50.3435 110.576C50.5494 109.682 51.4188 107.825 51.1442 106.953C50.9383 106.334 49.68 105.784 49.1766 105.44C47.7581 104.454 46.3854 103.423 44.9669 102.414C43.7314 101.543 42.4959 100.671 41.2833 99.7542C40.1623 98.9059 39.3157 97.8513 37.9659 97.4844C36.7761 97.1634 35.289 97.3698 34.0535 97.3239C32.4062 97.2781 30.7361 97.2551 29.0888 97.3239C23.5749 97.5991 17.3975 97.2093 12.1125 98.7454C9.59575 99.4791 7.99421 99.8918 6.59859 102.276C4.98895 105.024 3.58932 107.891 2.41171 110.851C2.22868 111.287 1.83973 111.906 1.86261 112.387C1.88549 113.281 2.2058 113.075 3.0752 113.602C4.01325 114.152 4.92841 114.817 5.8207 115.459C7.4372 116.574 9.11793 117.592 10.8541 118.509C12.776 119.517 14.6978 120.435 16.6425 121.443C17.878 122.085 19.1592 122.613 20.3718 123.323C21.6759 124.103 23.1631 124.309 24.5816 124.905C28.9744 126.762 33.207 128.482 37.5083 130.614C41.718 132.678 45.9507 134.443 50.2519 136.254C55.8116 138.616 61.3026 140.794 67.091 142.445C67.5257 142.559 68.418 142.995 68.8298 142.972C69.7221 142.926 69.928 142.284 70.4771 141.528C71.5295 140.083 72.5591 138.593 73.5658 137.103C75.7622 133.893 77.9128 130.614 80.2693 127.519C73.5658 125.639 67.3655 122.2 61.4856 118.646C61.2339 119.357 61.028 120.916 60.2272 121.145C59.2434 121.443 58.5113 120.068 58.0766 119.426C57.6648 120.48 56.9326 124.011 55.5828 123.942C53.7296 123.828 54.0499 120.893 53.8211 119.724C52.7915 121.099 51.6018 122.658 50.2062 120.572C49.2681 119.174 49.3597 116.606 49.6571 114.978ZM127.217 98.241C126.348 97.9659 125.501 97.7366 124.655 97.4386C124.426 96.9571 124.06 96.8195 123.557 97.0029C123.138 97.0402 122.716 96.9855 122.321 96.8425C120.5 96.5509 118.697 96.1528 116.922 95.6502C115.412 95.1917 114.016 94.8019 112.483 94.458C111.568 94.2517 107.541 93.1053 106.946 93.7931C106.763 93.9995 107.084 96.4985 107.038 96.9571C106.969 97.7595 106.924 99.0664 106.42 99.7313C106.237 99.9835 105.482 100.259 105.23 100.465C104.361 101.107 103.56 101.909 102.714 102.574C100.838 104.019 99.0073 105.532 97.1084 106.953C95.7585 107.939 94.2027 108.444 92.7156 109.154C93.7909 109.338 95.8729 108.306 96.9482 108.008C98.3438 107.595 99.7166 107.137 101.135 106.747C104.064 105.967 107.061 105.096 110.035 104.271C111.865 103.766 113.787 103.239 115.572 102.551C116.35 102.253 116.967 101.565 117.494 102.276C117.906 102.849 117.402 103.583 117.082 103.996C115.229 106.426 110.172 107.022 107.495 108.031C104.453 109.177 101.455 110.369 98.2981 111.172C94.6374 112.112 90.6565 112.823 87.2475 114.473C84.4105 115.826 81.2074 116.354 78.1873 117.156C75.3503 117.913 72.01 118.05 69.3331 119.334C70.4771 120.251 72.193 120.733 73.5429 121.329C75.1902 122.085 76.8604 122.773 78.4848 123.553C79.1711 123.897 79.9033 124.401 80.6125 124.676C81.5048 125.043 81.3904 124.837 82.3056 124.768C83.747 124.653 85.6688 124.401 86.8356 125.433C88.2313 126.694 87.339 128.069 87.5449 129.605C87.6822 130.66 87.7508 130.5 88.9405 130.66C90.0158 130.798 91.0912 130.981 92.1665 131.21C93.4706 131.485 94.8205 131.967 96.1017 132.38C98.0922 133.022 98.2981 133.778 100.357 132.953C106.237 130.591 112.323 128.665 118.249 126.441C120.971 125.41 123.717 123.438 126.279 121.948C129.574 120.045 132.548 117.981 134.79 114.817C135.797 113.373 136.872 110.92 136.644 109.131C136.46 107.527 135.271 105.738 134.493 104.363C133.509 102.597 132.663 101.909 131.175 100.74C130.123 99.9376 128.521 98.2181 127.217 98.241ZM61.6686 111.86C61.7601 112.754 61.2339 116.399 61.7601 116.95C62.6295 117.913 64.7802 116.789 65.6038 116.514C68.3036 115.574 71.438 115.78 74.1835 115.047C76.8375 114.336 79.4457 113.419 82.1454 112.685C83.5868 112.295 84.9367 111.676 86.3552 111.218C87.9339 110.69 89.6955 110.415 91.1369 109.636C90.9539 109.177 84.6393 110.278 83.93 110.324C81.4362 110.53 79.0796 110.14 76.6316 109.682C71.2092 108.673 66.1072 106.311 60.7535 104.775C61.0051 107.251 67.9604 107.733 67.1139 110.622C66.8851 111.424 63.7735 112.731 62.7439 112.227C60.6619 111.218 63.2015 109.773 64.254 109.407C62.673 108.497 61.1522 107.486 59.701 106.38C58.1452 105.188 57.4817 103.491 56.6581 101.749C54.9193 98.1264 50.8239 95.9941 47.6437 93.7473C44.189 91.2941 40.5283 89.2306 37.0736 86.7774C36.4558 86.3418 36.1813 86.5481 35.9525 85.7457C35.7237 84.8974 36.5702 83.8198 36.9821 83.1549C38.0575 81.4352 39.324 79.843 40.7571 78.409C38.9039 77.148 36.9134 76.1163 35.1975 74.6948C33.4358 73.2504 31.9944 71.485 30.4386 69.8342C27.9677 75.2221 24.5129 80.2202 21.7903 85.5164C20.715 87.6028 20.143 90.7667 21.7903 92.7843C23.5063 94.9166 26.7093 94.0912 29.1345 94.2058C31.6505 94.2824 34.1476 94.6674 36.5702 95.3522C37.7142 95.6732 38.7437 95.5815 39.8419 96.1088C41.1232 96.7278 42.4044 97.5303 43.617 98.2639C46.0193 99.7084 48.2843 101.52 50.5494 103.17C51.4874 103.858 56.5437 107.87 52.5399 107.251C52.5399 111.011 51.8764 114.84 51.5332 118.577C52.4542 117.479 53.1955 116.241 53.7296 114.909C54.0728 114.107 54.0728 112.02 55.2167 112.525C56.9326 113.258 55.6057 118.692 55.6057 120.159C56.0153 119.332 56.3596 118.473 56.6352 117.592C56.864 116.927 57.1614 115.07 57.6419 114.611C59.2663 113.121 59.4951 117.179 59.4951 118.004C60.0213 116.514 60.1128 114.932 60.1586 113.35C60.1815 112.731 60.0213 111.768 60.1815 111.172C60.4331 110.163 60.4103 110.232 61.4627 109.819C61.5542 110.507 61.6 111.195 61.6686 111.86ZM111.637 143.545C111.774 144.806 112.254 145.746 111.431 146.87C113.032 146.755 114.634 146.617 116.235 146.663C117.539 146.686 119.461 146.984 120.674 146.434C121.177 146.205 121.337 146.594 121.589 146.159C121.841 145.746 121.269 144.393 121.2 144.05C120.88 142.422 120.72 140.748 120.422 139.12C120.216 137.997 119.621 135.796 120.376 134.718C121.475 133.159 121.978 135.36 122.253 136.323C123.191 139.533 123.145 142.605 123.145 145.907C124.563 145.907 126.439 145.288 127.812 144.898C129.711 144.371 131.747 143.843 133.578 143.155C135.317 142.513 136.849 141.573 137.948 140.083C138.771 138.96 140.579 136.186 140.144 134.947C139.595 133.434 136.941 132.38 135.545 132.196C133.715 131.99 131.839 132.357 129.963 132.494C127.949 132.655 126.005 133.113 124.037 133.32C122.115 133.526 119.53 134.168 117.654 133.686C117.608 134.466 118.249 135.498 118.477 136.277C118.775 137.309 119.027 138.341 119.278 139.395C119.53 140.519 121.109 144.531 119.667 145.333C117.974 146.273 117.173 142.238 116.967 141.252C116.464 138.914 116.029 136.552 116.556 134.214C114.405 133.824 111.797 134.397 109.577 134.558C110.378 137.538 110.904 140.588 111.637 143.545ZM18.7932 144.829C19.5482 145.173 20.5777 144.99 21.3785 145.058C22.6597 145.15 23.941 145.379 25.2222 145.356C27.1669 145.288 29.226 145.035 31.1936 144.829C30.0726 142.811 29.4091 140.909 29.2718 138.593C29.226 137.768 28.7913 132.609 30.3014 132.838C31.0335 132.953 30.8733 137.355 31.0335 138.157C31.2394 139.327 31.5139 140.542 31.8343 141.688C32.063 142.513 32.8867 143.774 32.6808 144.669L35.6322 144.187C34.8553 142.745 34.3072 141.19 34.0078 139.579C33.8705 138.753 33.962 137.722 33.6875 136.942C33.5273 136.438 33.1384 135.979 33.0697 135.566C33.0011 135.085 33.5273 133.916 33.3443 133.48C33.1612 133.067 31.8343 132.678 31.3767 132.448C30.0954 131.806 29.3404 131.646 27.9219 132.013C25.1536 132.724 20.8065 133.205 18.7474 135.108C16.7112 136.965 15.979 143.293 18.7932 144.829ZM139.343 53.2579C140.098 53.1661 140.853 53.1203 141.631 53.0744C140.51 51.4952 139.486 49.849 138.565 48.1451C138.108 47.3197 137.673 46.4714 137.261 45.6002C136.781 44.6143 136.804 43.9723 135.774 43.7889C134.356 43.5138 132.457 44.064 130.992 43.9953C129.871 43.9494 127.309 42.8718 126.417 43.2616C127.24 44.9582 126.577 47.6178 126.622 49.4519C126.631 51.2612 126.455 53.0666 126.096 54.8398C128.041 54.8398 130.466 54.1749 132.434 53.8769C134.699 53.533 137.032 53.5101 139.343 53.2579ZM108.525 147.076C109.262 146.992 110.003 146.954 110.744 146.961C109.051 144.187 107.77 141.115 107.747 137.813C107.747 137.378 108.273 134.902 108.09 134.695C107.747 134.305 106.374 134.604 105.985 134.649C104.43 134.81 102.714 134.787 101.249 135.36C100.243 135.75 100.243 135.521 99.831 136.69C99.5818 137.414 99.443 138.171 99.4192 138.937C99.4661 140.522 99.8318 142.082 100.494 143.522C101.089 144.806 102.005 146.182 103.263 146.87C104.75 147.626 106.809 147.168 108.525 147.076ZM123.991 44.408C123.694 43.3074 123.831 43.5597 122.847 43.4221C122.641 43.3992 120.399 43.445 120.262 43.5826C120.125 43.7431 120.171 45.967 120.148 46.2421C120.079 47.1134 119.988 48.0075 119.896 48.8788C119.507 52.4325 118.775 55.8716 118.226 59.4023C119.599 58.554 121.566 59.7004 122.733 58.7833C123.648 58.0496 123.511 55.734 123.58 54.7023C123.808 51.2861 123.877 47.847 123.991 44.408ZM173.227 40.2581C173.113 40.4645 172.976 40.6479 172.861 40.8542C173.342 41.1523 176.133 38.0571 176.751 37.4839C177.574 36.7503 178.878 35.7415 179.244 34.6639C179.679 33.4029 179.244 31.4082 179.153 30.1243C179.084 29.1843 179.244 27.9004 178.489 27.2584C177.78 26.6623 176.064 26.6852 175.241 26.7999C172.77 27.1896 171.26 29.2301 170.024 31.179C171.305 31.0185 175.767 28.9779 176.293 30.0785C177.048 31.6834 172.335 33.1278 171.877 34.5493C172.838 34.8932 174.966 33.5634 174.371 35.7644C174.281 36.0665 174.097 36.3317 173.845 36.521C173.41 36.6815 173.296 36.9795 173.525 37.3922C173.319 38.2635 173.364 39.341 173.227 40.2581ZM201.78 118.256C201.803 118.784 201.849 119.288 202.261 119.655C203.199 116.652 203.496 113.648 203.885 110.53C204.274 107.412 204.686 104.225 204.755 101.107C204.8 97.5052 204.524 93.9066 203.931 90.3541C203.496 87.6487 203.153 84.3471 201.552 82.0315C202.467 87.9926 202.169 93.6326 201.574 99.5937C201.254 102.758 200.797 105.899 200.568 109.086C200.522 109.934 200.499 110.782 200.43 111.608C200.385 112.112 199.904 113.029 199.904 113.281C199.859 114.657 201.3 117.018 201.78 118.256ZM153.277 113.625C154.032 115.368 154.901 117.087 155.359 118.944C155.839 120.916 155.633 122.727 155.702 124.722C155.839 128.023 155.565 131.302 155.61 134.604C155.656 137.424 155.542 140.175 155.565 142.949C155.587 144.714 155.496 146.457 155.496 148.222C155.496 148.222 155.565 149.804 155.45 149.873C154.901 150.24 154.306 149.713 154.146 149.231L152.544 151.065C153.391 150.859 154.421 150.4 155.29 150.377C155.608 150.263 155.956 150.263 156.274 150.377C156.592 150.577 156.846 150.863 157.006 151.203C159.271 151.684 160.644 149.667 161.056 147.855C161.948 143.935 161.627 140.037 161.559 136.071C161.422 127.45 162.794 118.875 162.657 110.255C162.634 108.581 162.566 106.93 162.817 105.28C163.275 102.184 163.961 105.027 164.076 106.472C164.396 110.851 164.991 115.391 164.67 119.793C164.396 123.782 164.419 127.794 164.213 131.784C164.007 136.025 163.664 140.175 163.87 144.416C165.014 144.279 168.651 144.05 169.04 145.654C169.384 147.053 168.034 146.526 167.347 146.48C166.226 146.388 165.128 146.64 163.893 146.434C163.984 148.314 164.236 150.836 162.566 152.097C161.742 152.716 160.369 153.289 159.408 153.656C158.47 154.023 156.869 154.825 155.885 154.779C155.198 154.757 154.924 154.367 154.169 154.436C153.048 154.527 152.064 155.284 150.851 154.665C148.586 153.473 149.685 150.034 151.126 148.635C151.492 148.268 151.904 147.878 152.407 147.718C152.636 147.626 153.643 147.741 153.734 147.603C154.146 147.145 153.62 144.462 153.574 143.958C153.277 141.298 152.956 138.57 152.842 135.887C152.728 133.365 152.59 130.843 152.522 128.344C152.499 127.794 152.75 126.671 152.522 126.189C152.133 125.387 150.462 124.882 149.753 124.516C150.394 130.866 151.355 137.676 149.021 143.706C148.564 144.898 148.037 146.617 146.848 147.282C145.727 147.901 143.118 147.833 141.791 147.901C140.373 147.993 138.954 147.649 138.176 146.296C137.559 145.242 137.925 143.958 139.206 143.499C139.961 143.224 140.121 143.408 140.785 143.729C140.93 143.96 141.031 144.216 141.082 144.485H141.585C142.272 144.806 145.063 145.15 145.818 144.646C146.71 144.072 146.893 142.513 147.282 141.596C147.992 139.877 148.175 138.501 148.426 136.667C148.815 133.801 148.426 130.477 148.426 127.473V124.951C148.426 123.69 148.541 123.69 147.809 122.773C146.71 121.397 145.475 119.976 144.308 118.669C144.949 122.521 144.674 126.602 144.422 130.454C144.285 132.609 143.988 134.81 143.85 136.942C143.805 137.584 144.262 139.349 143.53 139.625C142.775 139.923 141.837 138.57 141.54 138.088C139.869 141.413 137.902 144.623 134.47 146.342C132.708 147.236 130.878 147.626 128.956 147.97C127.172 148.291 125.524 148.887 123.763 149.162C120.125 149.735 116.784 149.804 113.124 149.69C109.669 149.575 106.374 150.217 102.92 149.415C101.57 149.094 100.22 148.52 99.3048 147.489C98.8014 146.915 98.5726 146.044 98.0693 145.517C97.9549 144.852 97.566 144.646 96.8796 144.898C96.4596 144.917 96.0387 144.902 95.6212 144.852C92.1665 144.669 88.3228 144.875 84.9824 143.889C83.7241 143.522 82.3056 142.903 82.9233 141.298C83.4724 139.9 85.0053 140.335 86.2637 140.45C89.9015 140.794 93.4935 141.459 97.177 141.78C97.0626 139.854 97.1541 137.882 97.9091 136.071C95.3467 135.75 92.6927 135.268 90.2675 134.443C89.5125 134.191 88.7575 133.916 88.0254 133.664C86.7899 133.228 87.0416 133.113 86.3323 133.87C85.44 134.856 84.8909 136.896 84.2503 138.066C83.5035 139.375 82.8239 140.722 82.2141 142.101C81.6421 143.408 81.2074 145.173 80.3151 146.296C78.3704 148.795 73.8632 149.002 71.2092 148.016C69.9051 147.534 69.4475 147.466 68.6468 146.296C67.7773 145.012 67.5714 144.944 65.9699 144.76C63.1426 144.428 60.3679 143.743 57.7105 142.72C54.8735 141.665 51.945 140.84 49.1309 139.716C46.4769 138.662 43.9144 137.584 41.1689 136.759C40.8486 138.822 42.1985 141.161 42.1985 143.316C43.8 143.155 45.2872 143.018 46.8658 142.766C47.4378 142.674 50.9841 141.871 51.3273 142.353C52.7686 144.325 46.2023 145.242 45.1728 145.494C41.8782 146.319 38.515 147.099 35.1975 147.741C31.8114 148.406 28.5168 149.048 25.0849 149.162C19.2736 149.369 11.243 149.025 11.5405 141.367C11.6549 138.364 12.8903 135.108 15.2469 133.159C16.7112 131.944 18.5415 131.279 20.3489 130.729C21.0124 130.522 24.5129 130.041 24.6045 129.789C23.6207 129.078 21.9276 128.895 20.7608 128.344C19.6397 127.817 18.4729 127.634 17.3289 127.106C15.0603 126.036 12.8598 124.826 10.7397 123.484C9.03498 122.451 7.39247 121.317 5.8207 120.091C4.58523 119.128 3.41839 118.188 2.43459 117.064C1.93125 116.491 1.01608 115.964 0.60426 115.459C-0.837125 113.694 0.672897 110.209 1.29063 108.168C2.18292 105.188 3.37263 102.001 5.1572 99.4103C6.78162 97.0259 8.58907 95.421 11.4947 94.8707C14.1716 94.3663 16.8942 94.1829 19.6397 94.0453C19.1821 92.2799 18.5186 91.0419 18.7016 89.116C18.8618 87.3047 19.777 85.4935 20.4862 83.8198C21.8361 80.7476 23.0944 77.7212 24.9248 74.8782C25.9314 73.3192 27.0525 71.8289 28.1507 70.3386C28.3338 70.0864 29.4319 68.9859 29.3862 68.6879C29.3404 68.3898 28.2422 67.4498 28.0592 67.2205C26.9152 65.7761 26.1374 64.217 27.4643 62.658C28.1507 61.8555 30.2098 60.2277 31.1936 61.2365C32.269 59.0814 34.1222 57.614 35.5635 55.7798C37.371 53.4871 39.0869 51.1715 40.78 48.7641C42.473 46.3797 43.8458 43.8118 46.0651 41.886C48.5589 39.7537 50.8926 39.9371 53.9584 40.8542C54.1414 39.662 54.3702 39.8225 55.5141 39.4328C56.3835 39.1347 57.2072 38.7908 58.0766 38.4469C58.9763 38.116 59.8927 37.8328 60.8221 37.5986C62.0576 37.2317 62.2406 37.3464 62.4465 35.7415C62.6982 33.8156 61.8517 31.7751 61.3254 29.9409C61.0738 29.0467 60.8907 27.9233 60.2959 27.3272C59.7697 26.7769 58.8087 26.5247 58.2368 25.9286C53.2034 20.7242 53.1118 9.60447 58.4884 4.76683C59.5409 3.82681 60.3874 2.56582 61.6915 1.92386C63.2504 1.21209 64.8855 0.681317 66.5648 0.341879C69.7907 -0.345937 73.4285 -0.116665 75.991 2.15313C77.2493 3.27656 78.0272 5.06488 78.4619 6.66979C78.8737 8.20591 78.7822 10.7738 77.2264 8.41225C76.2426 6.92199 75.3961 5.40879 73.7259 4.67512C72.1814 3.98815 70.4929 3.6891 68.8069 3.80389C64.9861 4.12487 61.8974 5.2483 59.2663 8.09127C56.3378 11.2094 56.2005 16.2075 56.8183 20.1968C57.3674 19.0275 57.7563 17.1475 59.3121 16.9412C60.6162 16.7578 62.6524 18.4085 61.9661 19.83C58.8087 19.0275 57.8936 23.7964 60.6162 24.0945C61.4398 24.1862 62.4923 22.7188 63.2473 23.0398C64.6658 23.6818 62.7668 25.8828 62.3779 26.6164C62.172 26.7311 61.9889 26.8686 61.783 26.9833C61.9889 27.4418 62.172 27.9004 62.3779 28.3589C62.6295 28.9321 62.8583 29.5282 63.0642 30.1243C63.6249 31.573 64.0836 33.0593 64.437 34.5722C64.7573 36.1083 64.9175 37.8966 64.1625 39.3181C63.3388 40.9001 62.5609 40.6937 61.9203 39.2035C60.2501 40.2581 58.5799 41.3816 56.6352 41.7943C58.6943 45.2333 61.3483 48.2139 65.3293 49.2914C68.7154 50.2085 72.9709 50.1856 76.1969 48.6495C79.5372 47.0675 81.3904 43.3762 81.0015 39.7079C80.8642 38.5157 80.1778 34.3888 81.8251 37.3693C82.7174 38.9971 82.786 41.6567 82.5801 43.4679C81.5963 52.0656 72.9023 55.2754 65.4208 53.212C61.5771 52.1573 58.8087 49.3144 56.7496 45.967C56.2692 45.1875 55.8344 44.385 55.3997 43.5826C55.2167 43.2616 55.0794 42.8031 54.8506 42.5279C53.9584 41.4274 54.8278 42.0465 53.8897 41.886C52.4026 41.6796 50.0918 42.8031 48.9936 43.6972C46.0193 46.1275 44.372 50.0251 42.0841 53.0974C39.6589 56.353 36.5702 59.2648 33.4816 61.8785C36.9821 65.4781 40.4826 69.07 43.9831 72.6543C44.7152 71.8518 46.0879 70.0176 46.271 68.9401C46.3854 68.321 45.882 66.2346 47.4378 67.1517C48.4903 67.7708 48.8792 70.4303 49.2224 71.5308C49.7257 73.2045 50.5723 74.7865 51.1442 76.4602C52.1738 79.5553 53.4321 82.6047 54.4846 85.7228C54.9193 86.9838 56.1319 88.5657 54.965 89.6204C53.1805 91.2482 52.6543 88.0384 52.1967 86.8233C51.5332 87.7404 51.6247 89.2077 51.2815 90.2853C51.0756 90.9272 50.4579 91.936 50.4579 92.578C50.5036 93.6785 51.4874 93.9995 52.3797 94.6185C54.0499 95.7649 55.7429 96.8654 57.2758 98.1952C57.9201 98.7185 58.4898 99.328 58.9689 100.006C59.3807 100.625 59.4951 102.024 59.9527 102.46C60.5475 103.033 62.6982 102.62 63.8421 102.758C65.7411 102.964 67.6858 103.652 69.539 104.133C72.8108 105.005 76.174 106.243 79.6059 106.701C82.9691 107.16 86.1264 106.93 89.4896 106.334C91.32 106.013 93.2876 105.601 94.9577 104.729C96.8796 103.721 98.5955 102.093 100.403 100.855C101.204 100.304 102.027 99.7771 102.851 99.2727C103.949 98.5849 103.675 98.7225 103.743 97.622C103.835 96.3381 104.361 93.8848 103.515 92.7614C103.148 92.2799 102.073 91.936 101.547 91.5921C100.792 91.0877 100.128 90.4916 99.3277 90.1019C98.4582 89.6662 98.4354 90.0101 98.0235 88.9326C97.6575 87.9467 97.4058 86.915 97.0626 85.9062C95.5068 81.3437 95.1179 76.7124 94.4544 71.9664C94.157 69.7654 93.4248 66.739 94.2485 64.5839C95.3924 61.5804 96.3762 65.7761 96.605 66.8537C97.7032 64.9507 98.3438 62.8643 99.4878 60.9843C100.151 59.8838 100.494 59.3336 100.861 58.1413C101.021 57.6599 101.066 57.2472 101.387 56.8574C102.073 56.0091 102.165 56.4906 102.874 56.4677C105.116 56.3989 107.29 56.4677 109.532 56.5594C110.767 56.6052 112.003 56.6511 113.238 56.6511C113.833 56.6511 114.451 56.6282 115.068 56.6511C115.398 56.652 115.726 56.6749 116.052 56.7199C116.716 57.0408 116.967 56.7657 116.807 55.9174C117.379 54.7023 117.356 52.7535 117.562 51.4237C117.768 50.0939 117.951 48.7412 118.134 47.4114C118.226 46.7007 119.004 43.9953 118.592 43.3992C118.18 42.826 116.052 42.9406 115.435 42.8489C111.248 42.1611 107.358 40.4186 103.446 39.0201C101.524 38.3322 99.6937 37.3922 97.8405 36.521C96.8796 36.0854 95.9644 35.1683 94.9577 34.8702C93.6765 34.5034 91.9835 35.0766 90.7022 35.3059C88.3115 35.7481 85.8977 36.0543 83.4724 36.2229C82.603 36.2688 80.9557 36.521 80.155 35.9249C78.5763 34.7097 80.3837 34.0219 81.4133 33.8614C85.9662 33.1966 90.5192 32.8068 95.1179 32.5317C95.3238 32.5087 96.1246 32.3482 96.3762 32.44C96.9711 32.6234 96.7423 32.8526 97.0855 33.0361C97.804 33.4084 98.5644 33.6932 99.3505 33.8844C101.753 34.5263 104.178 35.6039 106.603 36.4522C110.95 37.9654 116.144 40.3957 120.491 39.9601C121.566 39.8454 122.436 39.7308 123.557 39.8225C124.861 39.9601 125.639 40.625 126.645 40.8313C127.995 41.0835 129.94 40.9001 131.358 40.9459C132.708 40.9918 134.081 41.0606 135.431 41.0606C134.309 38.7467 133.443 36.3174 132.846 33.8156C132.479 32.417 131.93 31.1331 132.159 29.6428C132.295 28.9493 132.526 28.2779 132.846 27.6482C133.303 26.6852 133.44 26.8916 133.601 25.8369C133.829 24.3925 133.509 22.8564 133.669 21.389C133.852 19.8988 134.973 18.569 135.111 17.1246C135.179 16.368 134.745 15.749 134.882 14.9236C134.996 14.1899 135.431 13.4104 135.82 12.7913C136.735 11.3469 137.833 10.5445 139.366 9.94837C140.602 9.4669 142.18 9.05421 143.416 9.81081C144.697 10.5903 144.605 12.1494 145.2 13.2957C146.504 15.749 149.524 17.95 151.927 19.211C154.146 20.3573 156.525 21.091 158.882 21.8476C160.323 22.3061 161.811 22.6271 163.229 23.1544C164.259 23.5213 165.906 24.4384 166.958 23.8881C167.874 23.4066 168.926 21.9164 169.818 21.2515C170.871 20.449 172.266 19.6695 173.593 20.3573C174.92 21.0451 174.806 23.6359 175.835 24.1174C176.201 24.2779 177.254 23.7964 177.734 23.8652C178.512 23.9798 179.061 24.4842 179.542 25.0803C181.304 27.3272 181.853 30.9038 181.921 33.678C181.967 35.0537 181.921 36.7961 181.075 37.9654C180.091 39.341 178.238 39.364 176.956 40.3269C175.95 41.1064 175.241 42.3674 174.211 43.1928C173.57 43.6972 173.342 43.3074 173.067 44.1099C172.907 44.6143 173.25 45.6231 173.342 46.1275C173.959 49.1997 175.149 52.0198 176.27 54.9545C176.823 56.3135 177.229 57.7277 177.483 59.1731C177.643 60.136 177.46 60.9614 177.528 61.8785C177.574 62.5434 177.872 63.0936 177.803 63.7814C177.666 65.2029 176.911 66.4639 176.407 67.7249C175.858 69.1464 176.613 71.6225 177.185 73.1128C178.535 76.6436 180.434 80.2202 182.127 83.6364C183.774 86.9838 185.01 90.5375 186.955 93.7473C188.831 96.8654 191.027 99.9147 193.178 102.872C194.368 104.523 195.626 106.082 196.701 107.802C196.93 108.168 198.532 111.287 198.966 111.195C198.463 105.761 198.966 100.098 199.195 94.6644C199.47 87.855 198.623 81.6876 196.701 75.1992C196.244 73.686 195.855 72.1269 195.534 70.5679C195.306 69.4903 194.688 68.5962 196.221 69.0547C198.737 69.8342 200.98 74.626 202.261 76.6894C205.144 81.3437 207.546 87.5569 207.866 93.0136C208.154 98.2794 207.947 103.561 207.248 108.788C206.935 111.5 206.375 114.178 205.578 116.789C205.164 118.096 204.667 119.375 204.091 120.618C203.862 121.145 203.336 121.718 203.245 122.292C203.107 123.186 203.771 124.424 203.931 125.318C204.457 128.26 204.619 131.255 204.411 134.237C204.347 135.775 204.062 137.296 203.565 138.753C202.901 140.656 203.222 142.124 203.496 144.072C203.794 146.182 204.068 150.951 201.895 152.143C201.735 152.12 201.597 152.12 201.437 152.097C201.048 151.638 200.705 151.684 200.408 152.166C199.836 152.349 199.287 152.831 198.692 153.037C197.319 153.518 195.832 153.541 194.39 153.748C191.576 154.16 188.762 154.871 186.017 154.963C182.71 155.109 179.398 154.91 176.133 154.367C175.469 154.252 174.691 153.931 174.028 153.862C173.136 153.771 172.495 154.39 171.58 154.229C170.139 154 169.246 152.487 169.132 151.249C168.834 147.259 171.031 145.448 174.646 144.737C172.312 141.39 169.635 138.662 169.017 134.374C168.4 130.156 169.727 125.272 172.129 121.902C174.44 118.669 178.352 116.491 182.425 117.316C184.301 117.706 193.178 120.32 191.462 123.3C191.073 121.948 188.739 122.2 187.618 121.994C185.742 121.673 183.866 121.168 181.967 121.283C178.215 121.489 174.6 123.69 172.793 127.06C170.711 130.935 171.649 134.787 174.165 138.111C176.476 141.138 178.833 144.302 181.921 146.503C181.326 147.466 181.532 147.764 180.343 147.58C179.519 147.466 178.764 146.824 177.94 146.663C176.224 146.342 173.548 147.741 172.495 149.139C171.877 149.965 171.9 150.377 173.044 150.882C173.891 151.249 175.241 151.065 176.133 151.157C178.415 151.356 180.706 151.44 182.997 151.409C186.932 151.386 190.592 150.767 194.505 150.355C196.244 150.171 198.028 150.377 199.721 149.735C202.009 148.864 201.46 146.342 201.163 144.279C200.865 142.238 201.163 140.679 201.483 138.662C201.62 137.79 201.872 136.782 201.689 135.887C201.483 134.833 201.094 134.374 201.14 133.205C201.302 128.975 200.816 124.746 199.698 120.664C197.319 111.951 191.485 105.096 186.634 97.6908C185.262 95.6044 183.82 93.6326 182.722 91.3629C181.692 89.2306 180.983 86.9608 179.954 84.8057C177.689 80.0597 175.538 75.1992 174.211 70.0864C172.701 70.6825 171.099 71.5538 169.498 71.7601C167.668 71.9894 165.723 70.522 164.579 69.2152C161.971 66.2576 161.353 62.2453 161.559 58.4394C161.608 57.3112 161.715 56.1863 161.879 55.0691C162.016 54.3354 162.863 52.593 162.657 51.9281C162.451 51.2173 161.239 50.5754 160.872 49.8646C160.392 48.9475 160.346 47.7783 160.369 46.7924C160.392 45.8753 160.895 41.4045 162.337 43.2387C163.16 44.2933 161.948 48.2368 162.794 48.787C163.549 49.2685 164.602 48.6724 165.38 49.7958C166.226 50.9881 165.769 52.4783 165.471 53.7393C164.853 56.376 164.281 59.2189 164.304 61.9243C164.327 64.4005 164.762 67.4956 167.439 68.5044C168.789 69.0088 169.818 68.6649 170.848 67.7249C171.077 67.4498 171.328 67.1976 171.557 66.9454C171.786 66.5556 172.129 66.5098 172.587 66.8078C172.93 66.5327 173.433 64.6756 173.593 64.2629C175.675 59.1501 172.404 53.2808 171.191 48.2597C170.459 45.1875 169.818 42.1152 171.305 39.1576C171.557 38.6762 172.221 38.2635 171.809 37.5756C171.694 37.3922 170.711 37.3005 170.459 37.0942C169.681 36.4064 169.841 35.1454 169.841 34.2283C168.057 34.7785 167.53 33.38 167.759 31.6834C166.432 31.8897 165.494 32.3024 165.014 30.7663C164.579 29.3906 165.242 27.9921 165.677 26.7082C159.5 26.0433 152.842 25.195 147.9 20.9305C146.696 19.8384 145.662 18.5709 144.834 17.1704C144.674 16.9182 143.965 15.1758 143.736 15.0841C143.027 14.8089 142.432 16.1846 141.814 16.5285C141.265 16.8265 140.464 17.01 139.847 17.1934C139.275 17.3768 137.215 17.3997 136.849 17.6978C135.934 18.4544 136.003 22.8335 136.003 23.8423C135.994 27.3545 136.743 30.8272 138.199 34.0219C139.549 37.0254 141.631 41.1523 144.354 43.124C144.962 43.6281 145.739 43.8821 146.527 43.8348C147.145 43.8118 147.763 43.3762 148.403 43.6055C150.051 44.1787 149.456 45.325 148.197 45.8524C144.605 47.3885 141.563 43.9953 139.481 41.6338C138.863 44.4538 141.7 47.7783 143.187 50.071C144.148 51.5383 145.086 53.0057 145.978 54.4959C146.642 55.5735 147.923 57.5682 145.635 56.7428C144.537 62.5663 141.494 67.6791 139.938 73.3421C138.337 79.1656 136.964 85.7915 136.964 91.8443C138.176 90.996 138.794 87.1442 140.419 90.1019C140.602 90.4228 140.533 90.9502 140.762 91.2253C141.082 91.6151 141.471 91.5004 141.974 91.7755C142.752 92.2112 143.256 93.0824 142.569 93.839C143.461 93.6326 144.422 93.7473 144.605 94.8019C144.72 95.398 143.828 98.1722 143.187 98.4015C141.196 99.0893 138.977 95.1 138.451 93.839C137.215 95.1 135.774 96.0629 134.63 94.0224C133.784 92.5092 134.264 90.2394 134.401 88.5887C134.653 85.2871 134.95 82.0544 135.431 78.7758C136.323 72.6313 138.588 67.1747 141.379 61.6263C142.157 60.1131 143.004 58.554 143.69 56.995C144.72 54.6564 143.118 55.2067 141.517 55.5506C138.395 56.2402 135.231 56.7152 132.045 56.9721C130.42 57.0867 128.316 57.1784 126.76 57.6369C125.662 57.9809 125.845 57.7287 125.41 58.9209C125.234 59.4714 124.972 59.99 124.632 60.457C122.847 62.7726 118.226 62.3829 115.686 62.2224C115.846 61.2365 115.984 60.2736 116.144 59.2877C114.074 59.779 111.956 60.0329 109.829 60.0443C108.731 60.0214 107.587 59.8609 106.489 59.7692C105.688 59.7004 104.178 59.1272 103.423 59.3565C102.554 59.6087 101.227 62.7726 100.723 63.8044C99.7852 65.7302 98.1151 67.8396 97.5202 69.8571C96.994 71.6455 98.0693 74.7406 98.4125 76.506C98.8929 79.0739 99.3505 81.6646 100.151 84.1408C100.746 85.952 101.433 88.4511 103.24 89.3453C105.047 90.2394 106.352 90.7438 108.296 90.5604C111.728 90.2394 115.389 90.7667 118.798 91.4316C122.298 92.1194 125.501 92.4404 128.819 93.6556C136.346 96.4527 141.151 105.05 138.314 112.914C136.689 117.454 133.99 120.801 130.031 123.621C128.018 125.043 125.639 126.212 123.442 127.313C122.436 127.817 121.429 128.436 120.399 128.872C119.644 129.193 118.34 129.949 117.539 130.041C118.455 130.477 119.255 130.064 120.193 129.926C121.543 129.743 122.893 129.697 124.243 129.537C126.325 129.284 128.407 129.078 130.489 128.826C132.34 128.57 134.216 128.554 136.072 128.78C136.918 128.895 138.222 129.147 138.977 129.56C139.572 129.881 140.121 130.637 140.785 131.004C141.494 128.069 141.174 124.47 141.196 121.466C141.219 119.013 141.334 116.606 141.563 114.175C141.814 111.447 140.144 108.352 139.549 105.669C138.977 103.17 137.444 100.006 137.993 97.3927C138.703 94.0912 140.579 100.006 140.83 100.855C141.631 103.491 142.569 106.082 143.461 108.696C144.514 111.814 145.589 114.817 147.122 117.729C148.403 120.159 149.868 123.002 152.522 124.172C152.316 120.595 152.064 117.294 150.577 114.015C149.181 110.897 147.031 108.123 146.093 104.775C145.635 103.125 145.566 101.405 145.543 99.7084C145.521 98.562 145.589 97.0029 146.825 98.241C147.809 99.2269 147.992 102.368 148.426 103.698C148.632 104.34 148.93 104.913 149.135 105.555C149.227 105.83 149.936 107.206 149.936 107.389C150.6 109.567 152.178 111.631 153.277 113.625Z" fill="white" fill-opacity="0.9"/>
<path id="Fill-8" fill-rule="evenodd" clip-rule="evenodd" d="M77.6613 35.0078C77.73 35.8331 78.2104 38.0112 77.5927 38.6761C76.769 39.5474 76.3801 38.4239 76.0369 37.5298C75.3048 35.6727 74.9158 32.0731 76.403 30.514C77.9359 28.8862 80.9559 28.8633 82.5803 27.2355C83.2438 26.5935 83.1752 26.7311 83.1066 25.7223C83.0837 25.1491 82.6947 24.3925 82.5346 23.8881C82.077 22.5583 81.5737 21.2285 81.0703 19.8987C80.2238 20.2885 79.0112 21.4807 78.1647 20.4719C77.3868 19.5548 78.668 18.0416 79.5603 17.7665C79.1027 16.7348 76.9063 16.9411 76.4716 15.4279C76.1055 14.1211 77.158 14.6484 77.3868 14.1211C77.6613 13.525 77.1122 12.6996 77.3868 12.1494C78.3706 10.2235 79.4688 13.7772 79.9492 14.3962C80.8644 15.5884 82.4431 15.8406 82.5803 17.629C82.6719 18.7295 82.5803 19.2339 83.0379 20.3114C83.4497 21.2973 83.9531 22.2602 84.2963 23.292C84.8225 24.8281 85.6233 27.6481 84.6166 29.1384C83.7472 30.3994 81.6423 31.3623 80.2695 31.8897C79.5832 32.1648 78.6451 32.3253 78.0732 32.8526C77.3639 33.5404 77.5927 33.976 77.6613 35.0078Z" fill="white" fill-opacity="0.9"/>
<path id="Fill-14" fill-rule="evenodd" clip-rule="evenodd" d="M148.724 81.6188C148.564 81.3666 148.403 81.1373 148.266 80.8851C147.191 82.0544 145.978 82.5129 144.88 81.0456C143.759 79.5324 144.171 77.2626 144.605 75.6118C144.834 74.7635 145.978 71.3932 146.71 73.9611C146.87 74.5343 146.321 75.7723 146.23 76.3455C146.047 77.4231 145.887 78.4777 146.024 79.5783C147.282 78.4319 147.923 75.566 149.204 78.5465C149.662 79.6241 149.73 81.4124 150.966 79.7617C151.629 78.8904 151.675 77.2626 151.973 76.2079C154.1 76.7123 153.711 79.8534 153.002 81.3895C151.881 83.8198 150.348 83.0403 148.724 81.6188Z" fill="white" fill-opacity="0.9"/>
<path id="Fill-16" fill-rule="evenodd" clip-rule="evenodd" d="M156.137 26.9603C156.892 28.2213 155.473 30.514 155.199 31.8209C156.457 31.6833 159.591 28.6111 160.461 29.1155C162.291 30.1701 158.425 33.8156 157.693 34.3429C151.744 38.6303 152.819 26.2725 156.137 26.9603Z" fill="white" fill-opacity="0.9"/>
<path id="Fill-28" fill-rule="evenodd" clip-rule="evenodd" d="M148.678 40.9918C150.897 40.3727 153.894 44.3621 152.453 46.3338C151.423 47.7553 150.142 46.9299 149.822 45.6919C149.662 45.0499 149.799 44.2933 149.593 43.5826C149.318 42.7113 148.975 41.863 148.678 40.9918Z" fill="white" fill-opacity="0.9"/>
<path id="Fill-30" fill-rule="evenodd" clip-rule="evenodd" d="M80.4295 23.7964C82.1226 25.2179 78.6678 28.6799 76.9519 25.9745C76.4714 25.2179 76.3799 24.553 77.0892 24.2779C77.4552 24.1403 78.2789 24.5988 78.7822 24.5071C79.3313 24.4154 79.949 24.0257 80.4295 23.7964Z" fill="white" fill-opacity="0.9"/>
<path id="Fill-32" fill-rule="evenodd" clip-rule="evenodd" d="M74.6406 18.1104C73.9771 17.285 72.1468 12.264 74.4347 13.3874C75.5787 13.9377 76.5167 18.248 74.6406 18.1104Z" fill="white" fill-opacity="0.9"/>
<path id="Fill-36" fill-rule="evenodd" clip-rule="evenodd" d="M149.936 126.396C149.867 125.754 149.799 125.135 149.753 124.493C150.599 124.928 152.293 125.341 152.567 126.304C153.116 128.115 150.554 126.671 149.936 126.396Z" fill="white" fill-opacity="0.9"/>
<path id="Fill-38" fill-rule="evenodd" clip-rule="evenodd" d="M174.371 49.75C173.868 49.0622 172.312 43.3991 173.662 43.5367C173.914 45.6002 173.959 47.7324 174.371 49.75Z" fill="white" fill-opacity="0.9"/>
<path id="Fill-40" fill-rule="evenodd" clip-rule="evenodd" d="M153.276 113.625C152.178 111.63 150.599 109.567 149.867 107.412C151.56 108.765 152.864 111.539 153.276 113.625Z" fill="white" fill-opacity="0.9"/>
<path id="Fill-42" fill-rule="evenodd" clip-rule="evenodd" d="M198.714 109.017C198.783 109.728 198.851 110.461 198.92 111.172C197.913 111.447 198.668 109.269 198.714 109.017Z" fill="white" fill-opacity="0.9"/>
<path id="Fill-44" fill-rule="evenodd" clip-rule="evenodd" d="M149.891 107.412C149.447 106.894 149.168 106.256 149.09 105.578C149.364 106.197 149.616 106.816 149.891 107.412Z" fill="white" fill-opacity="0.9"/>
<path id="Fill-46" fill-rule="evenodd" clip-rule="evenodd" d="M155.633 139.968C155.656 139.327 155.679 138.685 155.679 138.043C155.656 138.685 155.656 139.327 155.633 139.968Z" fill="white" fill-opacity="0.9"/>
<path id="Fill-48" fill-rule="evenodd" clip-rule="evenodd" d="M80.5664 36.1541C81.0011 36.2 81.4129 36.2688 81.8476 36.3146C81.5045 36.4522 80.7037 36.6814 80.5664 36.1541Z" fill="white" fill-opacity="0.9"/>
<path id="Fill-50" fill-rule="evenodd" clip-rule="evenodd" d="M165.356 146.686C165.791 146.617 166.249 146.457 166.683 146.709C166.226 146.709 165.791 146.709 165.356 146.686Z" fill="white" fill-opacity="0.9"/>
<path id="Fill-52" fill-rule="evenodd" clip-rule="evenodd" d="M152.705 132.242C152.705 132.723 152.728 133.182 152.728 133.663C152.728 133.182 152.728 132.701 152.705 132.242Z" fill="white" fill-opacity="0.9"/>
<path id="Fill-54" fill-rule="evenodd" clip-rule="evenodd" d="M161.856 124.859C161.833 125.364 161.81 125.868 161.765 126.373C161.788 125.868 161.833 125.364 161.856 124.859Z" fill="white" fill-opacity="0.9"/>
<path id="Fill-58" fill-rule="evenodd" clip-rule="evenodd" d="M168.972 130.706C168.949 131.096 168.926 131.485 168.903 131.875C168.926 131.508 168.949 131.119 168.972 130.706Z" fill="white" fill-opacity="0.9"/>
<path id="Fill-60" fill-rule="evenodd" clip-rule="evenodd" d="M89.5586 140.61C89.362 140.718 89.1418 140.774 88.918 140.774C88.6942 140.774 88.4739 140.718 88.2773 140.61H89.5586Z" fill="white" fill-opacity="0.9"/>
<path id="Fill-62" fill-rule="evenodd" clip-rule="evenodd" d="M133.601 22.2603C133.601 22.65 133.623 23.0398 133.623 23.4295C133.601 23.0398 133.601 22.65 133.601 22.2603Z" fill="white" fill-opacity="0.9"/>
<path id="Fill-66" fill-rule="evenodd" clip-rule="evenodd" d="M181.898 34.3199V33.1736C182 33.3476 182.053 33.5454 182.053 33.7468C182.053 33.9482 182 34.1459 181.898 34.3199Z" fill="white" fill-opacity="0.9"/>
<g id="Group-72">
<path id="Fill-70" fill-rule="evenodd" clip-rule="evenodd" d="M185.948 154.957H186.841C186.544 154.98 186.245 154.98 185.948 154.957Z" fill="white" fill-opacity="0.9"/>
</g>
<path id="Fill-77" fill-rule="evenodd" clip-rule="evenodd" d="M146.504 43.8118C146.115 43.7659 145.749 43.743 145.36 43.6971C145.726 43.7201 146.115 43.7659 146.504 43.8118Z" fill="white" fill-opacity="0.9"/>
<path id="Fill-81" fill-rule="evenodd" clip-rule="evenodd" d="M122.458 39.7537H121.337C121.508 39.6579 121.701 39.6075 121.897 39.6075C122.094 39.6075 122.287 39.6579 122.458 39.7537Z" fill="white" fill-opacity="0.9"/>
<path id="Fill-83" fill-rule="evenodd" clip-rule="evenodd" d="M72.1699 0.227185C71.781 0.204258 71.392 0.410602 71.0488 0.112549C71.4149 0.158403 71.8038 0.204258 72.1699 0.227185Z" fill="white" fill-opacity="0.9"/>
<path id="Fill-87" fill-rule="evenodd" clip-rule="evenodd" d="M84.8451 140.289C84.4562 140.335 84.0672 140.358 83.7012 140.404C84.0901 140.358 84.4791 140.312 84.8451 140.289Z" fill="white" fill-opacity="0.9"/>
<path id="Fill-89" fill-rule="evenodd" clip-rule="evenodd" d="M94.4082 32.6004C94.0421 32.6004 93.6532 32.6233 93.2871 32.6233C93.6532 32.4628 94.0192 32.3253 94.4082 32.6004Z" fill="white" fill-opacity="0.9"/>
<path id="Fill-93" fill-rule="evenodd" clip-rule="evenodd" d="M198.852 107.549C198.806 107.939 198.76 108.329 198.737 108.719C198.783 108.329 198.829 107.939 198.852 107.549Z" fill="white" fill-opacity="0.9"/>
<path id="Fill-95" fill-rule="evenodd" clip-rule="evenodd" d="M150.348 132.861C150.325 132.517 150.303 132.196 150.257 131.852C150.28 132.196 150.303 132.54 150.348 132.861Z" fill="white" fill-opacity="0.9"/>
<path id="Fill-97" fill-rule="evenodd" clip-rule="evenodd" d="M24.5583 129.789C24.4897 130.133 24.238 130.179 23.8262 129.995L24.5583 129.789Z" fill="white" fill-opacity="0.9"/>
<path id="Fill-99" fill-rule="evenodd" clip-rule="evenodd" d="M164.304 129.949C164.281 129.651 164.258 129.376 164.235 129.078C164.258 129.353 164.281 129.651 164.304 129.949Z" fill="white" fill-opacity="0.9"/>
<path id="Fill-101" fill-rule="evenodd" clip-rule="evenodd" d="M85.9429 33.2882C85.6226 33.3341 85.3023 33.3799 85.0049 33.4258C85.3252 33.3799 85.6226 33.3341 85.9429 33.2882Z" fill="white" fill-opacity="0.9"/>
<path id="Fill-107" fill-rule="evenodd" clip-rule="evenodd" d="M18.7702 88.2676C18.7473 88.5428 18.7016 88.8408 18.6787 89.1159C18.7016 88.8408 18.7245 88.5657 18.7702 88.2676Z" fill="white" fill-opacity="0.9"/>
<path id="Fill-111" fill-rule="evenodd" clip-rule="evenodd" d="M44.7377 143.155C44.4174 143.155 44.0971 143.155 43.7539 143.132C43.9025 143.04 44.0746 142.994 44.2492 142.998C44.4238 143.002 44.5935 143.057 44.7377 143.155Z" fill="white" fill-opacity="0.9"/>
<path id="Fill-113" fill-rule="evenodd" clip-rule="evenodd" d="M82.603 18.0416C82.603 17.7665 82.603 17.5143 82.5801 17.2392C82.7631 17.5143 82.8089 17.7894 82.603 18.0416Z" fill="white" fill-opacity="0.9"/>
<path id="Fill-129" fill-rule="evenodd" clip-rule="evenodd" d="M148.426 124.951C146.435 123.415 144.719 121.122 144.308 118.669C145.154 119.632 145.886 120.71 146.733 121.673C147.076 122.062 147.488 122.383 147.808 122.773C148.563 123.667 148.426 123.69 148.426 124.951Z" fill="white" fill-opacity="0.9"/>
<path id="Fill-131" fill-rule="evenodd" clip-rule="evenodd" d="M141.471 114.565C140.51 112.364 139.686 109.705 139.869 107.274C140.51 109.475 142.02 112.249 141.471 114.565Z" fill="white" fill-opacity="0.9"/>
<path id="Fill-133" fill-rule="evenodd" clip-rule="evenodd" d="M144.651 127.496C144.628 128.138 144.628 128.78 144.605 129.399C144.628 128.757 144.651 128.115 144.651 127.496Z" fill="white" fill-opacity="0.9"/>
<path id="Fill-135" fill-rule="evenodd" clip-rule="evenodd" d="M18.793 144.829C19.4336 144.875 20.0971 144.898 20.7377 144.944C20.0971 144.944 19.4336 145.104 18.793 144.829Z" fill="white" fill-opacity="0.9"/>
<path id="Fill-139" fill-rule="evenodd" clip-rule="evenodd" d="M117.928 62.314C117.562 62.2911 117.196 62.2682 116.83 62.2682C117.196 62.2911 117.562 62.314 117.928 62.314Z" fill="white" fill-opacity="0.9"/>
<path id="Fill-143" fill-rule="evenodd" clip-rule="evenodd" d="M116.03 59.8608C116.034 59.7955 116.024 59.73 115.999 59.6692C115.975 59.6085 115.937 59.554 115.888 59.51C115.84 59.4659 115.782 59.4333 115.72 59.4147C115.657 59.3961 115.591 59.3918 115.526 59.4023C116.144 59.0584 116.327 59.2189 116.03 59.8608Z" fill="white" fill-opacity="0.9"/>
<path id="Fill-153" fill-rule="evenodd" clip-rule="evenodd" d="M195.969 150.194H197.113C196.943 150.306 196.744 150.366 196.541 150.366C196.337 150.366 196.139 150.306 195.969 150.194Z" fill="white" fill-opacity="0.9"/>
<path id="Fill-155" fill-rule="evenodd" clip-rule="evenodd" d="M36.1353 97.3927C35.8836 97.3927 35.6091 97.4156 35.3574 97.4156C35.632 97.4156 35.8836 97.3927 36.1353 97.3927Z" fill="white" fill-opacity="0.9"/>
<path id="Fill-157" fill-rule="evenodd" clip-rule="evenodd" d="M173.227 40.2581C173.479 40.4874 173.159 41.0376 172.861 40.8542C172.976 40.6479 173.113 40.4415 173.227 40.2581Z" fill="white" fill-opacity="0.9"/>
<path id="Fill-161" fill-rule="evenodd" clip-rule="evenodd" d="M141.174 121.489C141.197 121.145 141.22 120.801 141.22 120.435C141.197 120.778 141.174 121.145 141.174 121.489Z" fill="white" fill-opacity="0.9"/>
<path id="Fill-165" fill-rule="evenodd" clip-rule="evenodd" d="M84.4795 124.676C84.8684 124.699 85.2574 124.745 85.6463 124.768C85.2574 124.745 84.8684 124.722 84.4795 124.676Z" fill="white" fill-opacity="0.9"/>
<path id="Fill-169" fill-rule="evenodd" clip-rule="evenodd" d="M70.2021 104.5C70.5911 104.546 70.98 104.569 71.369 104.615C70.98 104.592 70.5911 104.546 70.2021 104.5Z" fill="white" fill-opacity="0.9"/>
<path id="Fill-175" fill-rule="evenodd" clip-rule="evenodd" d="M132.182 128.665C132.571 128.39 132.937 128.574 133.326 128.688C132.937 128.688 132.571 128.688 132.182 128.665Z" fill="white" fill-opacity="0.9"/>
<path id="Fill-177" fill-rule="evenodd" clip-rule="evenodd" d="M87.2247 35.9936C86.9731 35.9936 86.7214 35.9707 86.4697 35.9707C86.7214 35.9707 86.9731 35.9707 87.2247 35.9936Z" fill="white" fill-opacity="0.9"/>
<path id="Fill-187" fill-rule="evenodd" clip-rule="evenodd" d="M109.783 90.5374H110.79C110.636 90.6221 110.462 90.6665 110.287 90.6665C110.111 90.6665 109.938 90.6221 109.783 90.5374Z" fill="white" fill-opacity="0.9"/>
<path id="Fill-189" fill-rule="evenodd" clip-rule="evenodd" d="M127.309 57.614H126.714C126.911 57.5911 127.111 57.5911 127.309 57.614Z" fill="white" fill-opacity="0.9"/>
<path id="Fill-193" fill-rule="evenodd" clip-rule="evenodd" d="M30.6221 94.2516H31.6288C31.4802 94.3526 31.3049 94.4065 31.1254 94.4065C30.9459 94.4065 30.7706 94.3526 30.6221 94.2516Z" fill="white" fill-opacity="0.9"/>
<path id="Fill-195" fill-rule="evenodd" clip-rule="evenodd" d="M202.101 94.8248C202.078 95.077 202.055 95.3522 202.032 95.6044C202.055 95.3292 202.078 95.077 202.101 94.8248Z" fill="white" fill-opacity="0.9"/>
<path id="Fill-197" fill-rule="evenodd" clip-rule="evenodd" d="M116.167 136.277C116.19 136.002 116.236 135.704 116.259 135.429C116.236 135.727 116.213 136.002 116.167 136.277Z" fill="white" fill-opacity="0.9"/>
<path id="Fill-199" fill-rule="evenodd" clip-rule="evenodd" d="M61.5996 102.712C61.9428 102.712 62.286 102.712 62.6292 102.735C62.286 102.964 61.9428 102.826 61.5996 102.712Z" fill="white" fill-opacity="0.9"/>
<path id="Fill-201" fill-rule="evenodd" clip-rule="evenodd" d="M139.343 53.2578C139.663 53.212 140.006 53.189 140.327 53.1432C140.006 53.189 139.686 53.212 139.343 53.2578Z" fill="white" fill-opacity="0.9"/>
<path id="Fill-207" fill-rule="evenodd" clip-rule="evenodd" d="M20.9209 144.99L21.8818 145.127C21.5651 145.059 21.244 145.013 20.9209 144.99Z" fill="white" fill-opacity="0.9"/>
<path id="Fill-209" fill-rule="evenodd" clip-rule="evenodd" d="M26.9385 145.104C27.2588 144.852 27.5791 144.921 27.8994 145.081C27.5791 145.104 27.2588 145.104 26.9385 145.104Z" fill="white" fill-opacity="0.9"/>
<path id="Fill-211" fill-rule="evenodd" clip-rule="evenodd" d="M84.8447 107.068C85.165 107.022 85.4625 106.999 85.7828 106.953C85.4625 106.999 85.1422 107.022 84.8447 107.068Z" fill="white" fill-opacity="0.9"/>
<path id="Fill-217" fill-rule="evenodd" clip-rule="evenodd" d="M126.485 52.0656C126.462 52.3407 126.462 52.5929 126.439 52.8451C126.462 52.57 126.462 52.3178 126.485 52.0656Z" fill="white" fill-opacity="0.9"/>
<path id="Fill-223" fill-rule="evenodd" clip-rule="evenodd" d="M61.6689 111.86C61.6918 112.135 61.7376 112.41 61.7605 112.708C61.7147 112.433 61.6918 112.158 61.6689 111.86Z" fill="white" fill-opacity="0.9"/>
<path id="Fill-225" fill-rule="evenodd" clip-rule="evenodd" d="M62.7441 102.712C63.0644 102.758 63.4076 102.781 63.7279 102.826C63.4076 102.804 63.0873 102.758 62.7441 102.712Z" fill="white" fill-opacity="0.9"/>
<path id="Fill-229" fill-rule="evenodd" clip-rule="evenodd" d="M115.412 143.637C115.595 144.187 115.526 145.471 115 145.861C113.879 146.663 113.787 145.196 113.559 144.393C112.941 142.17 111.957 139.693 111.705 137.424C111.637 136.713 111.591 135.406 112.506 135.177C113.398 134.947 113.856 136.369 114.153 137.08C115.048 139.146 115.478 141.385 115.412 143.637Z" fill="white" fill-opacity="0.9"/>
<path id="Fill-231" fill-rule="evenodd" clip-rule="evenodd" d="M115.412 143.637C115.435 143.362 115.435 143.064 115.458 142.789C115.435 143.064 115.435 143.339 115.412 143.637Z" fill="white" fill-opacity="0.9"/>
</g>
</g>
</g>
<defs>
<clipPath id="clip0_1161_148">
<rect width="208" height="155" fill="white"/>
</clipPath>
</defs>
</svg>
